<svg width="16" height="15" viewBox="0 0 16 15" fill="none" xmlns="http://www.w3.org/2000/svg">
<path d="M8.1 14.72C7.08667 14.72 6.14 14.54 5.26 14.18C4.38 13.8067 3.60667 13.2933 2.94 12.64C2.28667 11.9733 1.77333 11.2067 1.4 10.34C1.04 9.46 0.86 8.51333 0.86 7.5C0.86 6.48667 1.04 5.54 1.4 4.66C1.77333 3.78 2.28667 3.01333 2.94 2.36C3.60667 1.69333 4.38 1.18 5.26 0.82C6.14 0.446666 7.08667 0.26 8.1 0.26C9.11333 0.26 10.0533 0.446666 10.92 0.82C11.8 1.18 12.5667 1.69333 13.22 2.36C13.8867 3.01333 14.4 3.78 14.76 4.66C15.1333 5.54 15.32 6.48667 15.32 7.5C15.32 8.51333 15.1333 9.46 14.76 10.34C14.4 11.2067 13.8867 11.9733 13.22 12.64C12.5667 13.2933 11.8 13.8067 10.92 14.18C10.0533 14.54 9.11333 14.72 8.1 14.72ZM8.08 11.46C7.34667 11.46 6.7 11.2933 6.14 10.96C5.58 10.6267 5.14 10.1667 4.82 9.58C4.51333 8.98 4.36 8.28667 4.36 7.5C4.36 6.71333 4.51333 6.02667 4.82 5.44C5.14 4.84 5.57333 4.37333 6.12 4.04C6.68 3.70667 7.32667 3.54 8.06 3.54C8.7 3.54 9.30667 3.71333 9.88 4.06C10.4667 4.39333 10.9067 4.84667 11.2 5.42L11.46 5.94L10.12 6.46L9.86 6.04C9.68667 5.73333 9.43333 5.48667 9.1 5.3C8.76667 5.1 8.42 5 8.06 5C7.40667 5 6.87333 5.23333 6.46 5.7C6.06 6.15333 5.86 6.75333 5.86 7.5C5.86 8.23333 6.06667 8.83333 6.48 9.3C6.89333 9.76667 7.42667 10 8.08 10C8.44 10 8.78667 9.88667 9.12 9.66C9.46667 9.43333 9.74 9.14667 9.94 8.8L10.12 8.44L11.52 8.94L11.28 9.42C10.9733 10.0333 10.5267 10.5267 9.94 10.9C9.35333 11.2733 8.73333 11.46 8.08 11.46ZM8.1 13.3C9.20667 13.3 10.1867 13.0533 11.04 12.56C11.8933 12.0667 12.56 11.38 13.04 10.5C13.5333 9.62 13.78 8.62 13.78 7.5C13.78 6.36667 13.5333 5.36 13.04 4.48C12.5467 3.6 11.8733 2.91333 11.02 2.42C10.1667 1.92667 9.19333 1.68 8.1 1.68C7.00667 1.68 6.02667 1.92667 5.16 2.42C4.30667 2.91333 3.63333 3.6 3.14 4.48C2.64667 5.36 2.4 6.36667 2.4 7.5C2.4 8.62 2.64667 9.62 3.14 10.5C3.63333 11.38 4.30667 12.0667 5.16 12.56C6.02667 13.0533 7.00667 13.3 8.1 13.3Z" fill="white"/>
</svg>
